# Blender v2.77 (sub 0) OBJ File: ''
# www.blender.org
o Cylinder
v 0.000000 1.000000 1.333333
v 0.000000 0.999999 4.000000
v 0.195090 0.980784 4.000000
v 0.195090 0.980785 1.333333
v 0.382683 0.923878 4.000000
v 0.382683 0.923879 1.333333
v 0.555570 0.831468 4.000000
v 0.555570 0.831470 1.333333
v 0.707107 0.707106 4.000000
v 0.707107 0.707107 1.333333
v 0.831470 0.555569 4.000000
v 0.831470 0.555570 1.333333
v 0.923880 0.382682 4.000000
v 0.923880 0.382683 1.333333
v 0.980785 0.195089 4.000000
v 0.980785 0.195090 1.333333
v 1.000000 -0.000001 4.000000
v 1.000000 -0.000000 1.333333
v 0.980785 -0.195091 4.000000
v 0.980785 -0.195090 1.333333
v 0.923880 -0.382684 4.000000
v 0.923880 -0.382683 1.333333
v 0.831470 -0.555571 4.000000
v 0.831470 -0.555570 1.333333
v 0.707107 -0.707108 4.000000
v 0.707107 -0.707107 1.333333
v 0.555570 -0.831471 4.000000
v 0.555570 -0.831470 1.333333
v 0.382683 -0.923881 4.000000
v 0.382683 -0.923880 1.333333
v 0.195090 -0.980786 4.000000
v 0.195090 -0.980785 1.333333
v 0.000000 -1.000001 4.000000
v 0.000000 -1.000000 1.333333
v -0.195091 -0.980786 4.000000
v -0.195091 -0.980785 1.333333
v -0.382684 -0.923881 4.000000
v -0.382684 -0.923879 1.333333
v -0.555571 -0.831470 4.000000
v -0.555571 -0.831469 1.333333
v -0.707107 -0.707108 4.000000
v -0.707107 -0.707106 1.333333
v -0.831470 -0.555571 4.000000
v -0.831470 -0.555570 1.333333
v -0.923880 -0.382684 4.000000
v -0.923880 -0.382683 1.333333
v -0.980785 -0.195091 4.000000
v -0.980785 -0.195090 1.333333
v -1.000000 0.000000 4.000000
v -1.000000 0.000001 1.333333
v -0.980785 0.195090 4.000000
v -0.980785 0.195091 1.333333
v -0.923879 0.382683 4.000000
v -0.923879 0.382684 1.333333
v -0.831469 0.555570 4.000000
v -0.831469 0.555571 1.333333
v -0.707106 0.707106 4.000000
v -0.707106 0.707108 1.333333
v -0.555569 0.831469 4.000000
v -0.555569 0.831470 1.333333
v -0.382682 0.923879 4.000000
v -0.382682 0.923880 1.333333
v -0.195089 0.980784 4.000000
v -0.195089 0.980785 1.333333
v -0.195089 0.980787 -4.000000
v -0.195089 0.980786 -1.333333
v 0.000000 1.000000 -1.333333
v 0.000000 1.000001 -4.000000
v -0.382682 0.923881 -4.000000
v -0.382682 0.923880 -1.333333
v -0.555569 0.831472 -4.000000
v -0.555569 0.831470 -1.333333
v -0.707106 0.707109 -4.000000
v -0.707106 0.707108 -1.333333
v -0.831469 0.555572 -4.000000
v -0.831469 0.555571 -1.333333
v -0.923879 0.382686 -4.000000
v -0.923879 0.382685 -1.333333
v -0.980785 0.195093 -4.000000
v -0.980785 0.195091 -1.333333
v -1.000000 0.000002 -4.000000
v -1.000000 0.000001 -1.333333
v -0.980785 -0.195088 -4.000000
v -0.980785 -0.195089 -1.333333
v -0.923880 -0.382682 -4.000000
v -0.923880 -0.382683 -1.333333
v -0.831470 -0.555568 -4.000000
v -0.831470 -0.555570 -1.333333
v -0.707107 -0.707105 -4.000000
v -0.707107 -0.707106 -1.333333
v -0.555571 -0.831468 -4.000000
v -0.555571 -0.831469 -1.333333
v -0.382684 -0.923878 -4.000000
v -0.382684 -0.923879 -1.333333
v -0.195091 -0.980784 -4.000000
v -0.195091 -0.980785 -1.333333
v 0.000000 -0.999999 -4.000000
v 0.000000 -1.000000 -1.333333
v 0.195090 -0.980784 -4.000000
v 0.195090 -0.980785 -1.333333
v 0.382683 -0.923878 -4.000000
v 0.382683 -0.923880 -1.333333
v 0.555570 -0.831468 -4.000000
v 0.555570 -0.831470 -1.333333
v 0.707107 -0.707106 -4.000000
v 0.707107 -0.707107 -1.333333
v 0.831470 -0.555569 -4.000000
v 0.831470 -0.555570 -1.333333
v 0.923880 -0.382682 -4.000000
v 0.923880 -0.382683 -1.333333
v 0.980785 -0.195089 -4.000000
v 0.980785 -0.195090 -1.333333
v 1.000000 0.000001 -4.000000
v 1.000000 0.000000 -1.333333
v 0.980785 0.195092 -4.000000
v 0.980785 0.195090 -1.333333
v 0.923880 0.382685 -4.000000
v 0.923880 0.382683 -1.333333
v 0.831470 0.555571 -4.000000
v 0.831470 0.555570 -1.333333
v 0.707107 0.707108 -4.000000
v 0.707107 0.707107 -1.333333
v 0.555570 0.831471 -4.000000
v 0.555570 0.831470 -1.333333
v 0.382683 0.923881 -4.000000
v 0.382683 0.923880 -1.333333
v 0.195090 0.980786 -4.000000
v 0.195090 0.980785 -1.333333
vt 1.0000 -0.0000
vt 0.8750 -0.0000
vt 0.8750 1.0000
vt 1.0000 1.0000
vt 0.7500 -0.0000
vt 0.7500 1.0000
vt 0.6250 -0.0000
vt 0.6250 1.0000
vt 0.5000 -0.0000
vt 0.5000 1.0000
vt 0.3750 -0.0000
vt 0.3750 1.0000
vt 0.2500 -0.0000
vt 0.2500 1.0000
vt 0.1250 -0.0000
vt 0.1250 1.0000
vt 0.0000 -0.0000
vt 0.0000 1.0000
vt 1.0000 -0.0000
vt 0.8750 -0.0000
vt 0.8750 1.0000
vt 1.0000 1.0000
vt 0.7500 -0.0000
vt 0.7500 1.0000
vt 0.6250 -0.0000
vt 0.6250 1.0000
vt 0.5000 -0.0000
vt 0.5000 1.0000
vt 0.3750 -0.0000
vt 0.3750 1.0000
vt 0.2500 -0.0000
vt 0.2500 1.0000
vt 0.1250 -0.0000
vt 0.1250 1.0000
vt -0.0000 -0.0000
vt -0.0000 1.0000
vt 1.0000 -0.0000
vt 0.8750 -0.0000
vt 0.8750 1.0000
vt 1.0000 1.0000
vt 0.7500 -0.0000
vt 0.7500 1.0000
vt 0.6250 -0.0000
vt 0.6250 1.0000
vt 0.5000 -0.0000
vt 0.5000 1.0000
vt 0.3750 -0.0000
vt 0.3750 1.0000
vt 0.2500 -0.0000
vt 0.2500 1.0000
vt 0.1250 -0.0000
vt 0.1250 1.0000
vt -0.0000 -0.0000
vt -0.0000 1.0000
vt 1.0000 -0.0000
vt 0.8750 -0.0000
vt 0.8750 1.0000
vt 1.0000 1.0000
vt 0.7500 -0.0000
vt 0.7500 1.0000
vt 0.6250 -0.0000
vt 0.6250 1.0000
vt 0.5000 -0.0000
vt 0.5000 1.0000
vt 0.3750 -0.0000
vt 0.3750 1.0000
vt 0.2500 -0.0000
vt 0.2500 1.0000
vt 0.1250 -0.0000
vt 0.1250 1.0000
vt 0.0000 -0.0000
vt 0.0000 1.0000
vt 0.1250 0.0000
vt 0.0000 0.0000
vt 0.0000 1.0000
vt 0.1250 1.0000
vt 0.1250 0.0000
vt 0.0000 0.0000
vt 0.0000 1.0000
vt 0.1250 1.0000
vt 0.2500 0.0000
vt 0.2500 1.0000
vt 0.2500 0.0000
vt 0.2500 1.0000
vt 0.3750 0.0000
vt 0.3750 1.0000
vt 0.3750 0.0000
vt 0.3750 1.0000
vt 0.5000 0.0000
vt 0.5000 1.0000
vt 0.5000 0.0000
vt 0.5000 1.0000
vt 0.6250 0.0000
vt 0.6250 1.0000
vt 0.6250 0.0000
vt 0.6250 1.0000
vt 0.7500 0.0000
vt 0.7500 1.0000
vt 0.7500 0.0000
vt 0.7500 1.0000
vt 0.8750 0.0000
vt 0.8750 1.0000
vt 0.8750 0.0000
vt 0.8750 1.0000
vt 1.0000 0.0000
vt 1.0000 1.0000
vt 1.0000 0.0000
vt 1.0000 1.0000
vt 0.1250 -0.0000
vt 0.0000 -0.0000
vt 0.0000 1.0000
vt 0.1250 1.0000
vt 0.1250 0.0000
vt 0.0000 0.0000
vt 0.0000 1.0000
vt 0.1250 1.0000
vt 0.2500 -0.0000
vt 0.2500 1.0000
vt 0.2500 0.0000
vt 0.2500 1.0000
vt 0.3750 -0.0000
vt 0.3750 1.0000
vt 0.3750 0.0000
vt 0.3750 1.0000
vt 0.5000 -0.0000
vt 0.5000 1.0000
vt 0.5000 0.0000
vt 0.5000 1.0000
vt 0.6250 -0.0000
vt 0.6250 1.0000
vt 0.6250 0.0000
vt 0.6250 1.0000
vt 0.7500 -0.0000
vt 0.7500 1.0000
vt 0.7500 0.0000
vt 0.7500 1.0000
vt 0.8750 -0.0000
vt 0.8750 1.0000
vt 0.8750 0.0000
vt 0.8750 1.0000
vt 1.0000 -0.0000
vt 1.0000 1.0000
vt 1.0000 0.0000
vt 1.0000 1.0000
vt 0.1250 -0.0000
vt 0.0000 -0.0000
vt 0.0000 1.0000
vt 0.1250 1.0000
vt 0.1250 -0.0000
vt 0.0000 -0.0000
vt 0.0000 1.0000
vt 0.1250 1.0000
vt 0.2500 -0.0000
vt 0.2500 1.0000
vt 0.2500 -0.0000
vt 0.2500 1.0000
vt 0.3750 -0.0000
vt 0.3750 1.0000
vt 0.3750 -0.0000
vt 0.3750 1.0000
vt 0.5000 -0.0000
vt 0.5000 1.0000
vt 0.5000 -0.0000
vt 0.5000 1.0000
vt 0.6250 -0.0000
vt 0.6250 1.0000
vt 0.6250 -0.0000
vt 0.6250 1.0000
vt 0.7500 -0.0000
vt 0.7500 1.0000
vt 0.7500 -0.0000
vt 0.7500 1.0000
vt 0.8750 -0.0000
vt 0.8750 1.0000
vt 0.8750 -0.0000
vt 0.8750 1.0000
vt 1.0000 -0.0000
vt 1.0000 1.0000
vt 1.0000 -0.0000
vt 1.0000 1.0000
vt 0.1250 0.0000
vt -0.0000 0.0000
vt -0.0000 1.0000
vt 0.1250 1.0000
vt 0.1250 -0.0000
vt -0.0000 -0.0000
vt -0.0000 1.0000
vt 0.1250 1.0000
vt 0.2500 0.0000
vt 0.2500 1.0000
vt 0.2500 -0.0000
vt 0.2500 1.0000
vt 0.3750 0.0000
vt 0.3750 1.0000
vt 0.3750 -0.0000
vt 0.3750 1.0000
vt 0.5000 0.0000
vt 0.5000 1.0000
vt 0.5000 -0.0000
vt 0.5000 1.0000
vt 0.6250 0.0000
vt 0.6250 1.0000
vt 0.6250 -0.0000
vt 0.6250 1.0000
vt 0.7500 0.0000
vt 0.7500 1.0000
vt 0.7500 -0.0000
vt 0.7500 1.0000
vt 0.8750 0.0000
vt 0.8750 1.0000
vt 0.8750 -0.0000
vt 0.8750 1.0000
vt 1.0000 0.0000
vt 1.0000 1.0000
vt 1.0000 -0.0000
vt 1.0000 1.0000
vn -0.0980 -0.9952 -0.0000
vn -0.2903 -0.9569 -0.0000
vn -0.4714 -0.8819 -0.0000
vn -0.6344 -0.7730 -0.0000
vn -0.7730 -0.6344 -0.0000
vn -0.8819 -0.4714 -0.0000
vn -0.9569 -0.2903 -0.0000
vn -0.9952 -0.0980 -0.0000
vn -0.9952 0.0980 0.0000
vn -0.9569 0.2903 0.0000
vn -0.8819 0.4714 0.0000
vn -0.7730 0.6344 0.0000
vn -0.6344 0.7730 0.0000
vn -0.4714 0.8819 0.0000
vn -0.2903 0.9569 0.0000
vn -0.0980 0.9952 0.0000
vn 0.0980 0.9952 0.0000
vn 0.2903 0.9569 0.0000
vn 0.4714 0.8819 0.0000
vn 0.6344 0.7730 0.0000
vn 0.7730 0.6344 0.0000
vn 0.8819 0.4714 0.0000
vn 0.9569 0.2903 0.0000
vn 0.9952 0.0980 0.0000
vn 0.9952 -0.0980 -0.0000
vn 0.9569 -0.2903 -0.0000
vn 0.8819 -0.4714 -0.0000
vn 0.7730 -0.6344 -0.0000
vn 0.6344 -0.7730 -0.0000
vn 0.4714 -0.8819 -0.0000
vn 0.2903 -0.9569 -0.0000
vn 0.0980 -0.9952 -0.0000
s 1
f 1/1/1 4/2/1 3/3/1 2/4/1
f 4/2/2 6/5/2 5/6/2 3/3/2
f 6/5/3 8/7/3 7/8/3 5/6/3
f 8/7/4 10/9/4 9/10/4 7/8/4
f 10/9/5 12/11/5 11/12/5 9/10/5
f 12/11/6 14/13/6 13/14/6 11/12/6
f 14/13/7 16/15/7 15/16/7 13/14/7
f 16/15/8 18/17/8 17/18/8 15/16/8
f 18/19/9 20/20/9 19/21/9 17/22/9
f 20/20/10 22/23/10 21/24/10 19/21/10
f 22/23/11 24/25/11 23/26/11 21/24/11
f 24/25/12 26/27/12 25/28/12 23/26/12
f 26/27/13 28/29/13 27/30/13 25/28/13
f 28/29/14 30/31/14 29/32/14 27/30/14
f 30/31/15 32/33/15 31/34/15 29/32/15
f 32/33/16 34/35/16 33/36/16 31/34/16
f 34/37/17 36/38/17 35/39/17 33/40/17
f 36/38/18 38/41/18 37/42/18 35/39/18
f 38/41/19 40/43/19 39/44/19 37/42/19
f 40/43/20 42/45/20 41/46/20 39/44/20
f 42/45/21 44/47/21 43/48/21 41/46/21
f 44/47/22 46/49/22 45/50/22 43/48/22
f 46/49/23 48/51/23 47/52/23 45/50/23
f 48/51/24 50/53/24 49/54/24 47/52/24
f 50/55/25 52/56/25 51/57/25 49/58/25
f 52/56/26 54/59/26 53/60/26 51/57/26
f 54/59/27 56/61/27 55/62/27 53/60/27
f 56/61/28 58/63/28 57/64/28 55/62/28
f 58/63/29 60/65/29 59/66/29 57/64/29
f 60/65/30 62/67/30 61/68/30 59/66/30
f 62/67/31 64/69/31 63/70/31 61/68/31
f 64/69/32 1/71/32 2/72/32 63/70/32
f 65/73/32 68/74/32 67/75/32 66/76/32
f 66/77/32 67/78/32 1/79/32 64/80/32
f 69/81/31 65/73/31 66/76/31 70/82/31
f 70/83/31 66/77/31 64/80/31 62/84/31
f 71/85/30 69/81/30 70/82/30 72/86/30
f 72/87/30 70/83/30 62/84/30 60/88/30
f 73/89/29 71/85/29 72/86/29 74/90/29
f 74/91/29 72/87/29 60/88/29 58/92/29
f 75/93/28 73/89/28 74/90/28 76/94/28
f 76/95/28 74/91/28 58/92/28 56/96/28
f 77/97/27 75/93/27 76/94/27 78/98/27
f 78/99/27 76/95/27 56/96/27 54/100/27
f 79/101/26 77/97/26 78/98/26 80/102/26
f 80/103/26 78/99/26 54/100/26 52/104/26
f 81/105/25 79/101/25 80/102/25 82/106/25
f 82/107/25 80/103/25 52/104/25 50/108/25
f 83/109/24 81/110/24 82/111/24 84/112/24
f 84/113/24 82/114/24 50/115/24 48/116/24
f 85/117/23 83/109/23 84/112/23 86/118/23
f 86/119/23 84/113/23 48/116/23 46/120/23
f 87/121/22 85/117/22 86/118/22 88/122/22
f 88/123/22 86/119/22 46/120/22 44/124/22
f 89/125/21 87/121/21 88/122/21 90/126/21
f 90/127/21 88/123/21 44/124/21 42/128/21
f 91/129/20 89/125/20 90/126/20 92/130/20
f 92/131/20 90/127/20 42/128/20 40/132/20
f 93/133/19 91/129/19 92/130/19 94/134/19
f 94/135/19 92/131/19 40/132/19 38/136/19
f 95/137/18 93/133/18 94/134/18 96/138/18
f 96/139/18 94/135/18 38/136/18 36/140/18
f 97/141/17 95/137/17 96/138/17 98/142/17
f 98/143/17 96/139/17 36/140/17 34/144/17
f 99/145/16 97/146/16 98/147/16 100/148/16
f 100/149/16 98/150/16 34/151/16 32/152/16
f 101/153/15 99/145/15 100/148/15 102/154/15
f 102/155/15 100/149/15 32/152/15 30/156/15
f 103/157/14 101/153/14 102/154/14 104/158/14
f 104/159/14 102/155/14 30/156/14 28/160/14
f 105/161/13 103/157/13 104/158/13 106/162/13
f 106/163/13 104/159/13 28/160/13 26/164/13
f 107/165/12 105/161/12 106/162/12 108/166/12
f 108/167/12 106/163/12 26/164/12 24/168/12
f 109/169/11 107/165/11 108/166/11 110/170/11
f 110/171/11 108/167/11 24/168/11 22/172/11
f 111/173/10 109/169/10 110/170/10 112/174/10
f 112/175/10 110/171/10 22/172/10 20/176/10
f 113/177/9 111/173/9 112/174/9 114/178/9
f 114/179/9 112/175/9 20/176/9 18/180/9
f 115/181/8 113/182/8 114/183/8 116/184/8
f 116/185/8 114/186/8 18/187/8 16/188/8
f 117/189/7 115/181/7 116/184/7 118/190/7
f 118/191/7 116/185/7 16/188/7 14/192/7
f 119/193/6 117/189/6 118/190/6 120/194/6
f 120/195/6 118/191/6 14/192/6 12/196/6
f 121/197/5 119/193/5 120/194/5 122/198/5
f 122/199/5 120/195/5 12/196/5 10/200/5
f 123/201/4 121/197/4 122/198/4 124/202/4
f 124/203/4 122/199/4 10/200/4 8/204/4
f 125/205/3 123/201/3 124/202/3 126/206/3
f 126/207/3 124/203/3 8/204/3 6/208/3
f 127/209/2 125/205/2 126/206/2 128/210/2
f 128/211/2 126/207/2 6/208/2 4/212/2
f 68/213/1 127/209/1 128/210/1 67/214/1
f 67/215/1 128/211/1 4/212/1 1/216/1
