# Blender v2.75 (sub 0) OBJ File: ''
# www.blender.org
mtllib AlienRotate.mtl
o Circle_Circle.001
v -1.358249 0.000000 -8.575645
v -3.941791 0.000000 -7.736201
v -6.139483 0.000000 -6.139484
v -7.736201 0.000000 -3.941790
v -8.575645 0.000000 -1.358248
v -8.575644 0.000000 1.358250
v -7.736200 0.000000 3.941792
v -6.139483 0.000000 6.139484
v -3.941790 0.000000 7.736202
v -1.358246 0.000000 8.575644
v 1.358252 0.000000 8.575644
v 3.941796 0.000000 7.736199
v 6.139488 0.000000 6.139480
v 7.736205 0.000000 3.941786
v 8.575646 0.000000 1.358241
v 8.575643 0.000000 -1.358257
v 7.736197 0.000000 -3.941800
v 6.139477 0.000000 -6.139492
v 3.941781 0.000000 -7.736207
v 1.358236 0.000000 -8.575648
v -1.251476 4.442930 -7.901506
v -3.631924 4.442930 -7.128052
v -5.656854 4.442930 -5.656854
v -7.128052 4.442930 -3.631923
v -7.901506 4.442930 -1.251475
v -7.901506 4.442930 1.251476
v -7.128051 4.442930 3.631924
v -5.656854 4.442930 5.656854
v -3.631922 4.442930 7.128053
v -1.251473 4.442930 7.901506
v 1.251479 4.442930 7.901505
v 3.631928 4.442930 7.128050
v 5.656858 4.442930 5.656850
v 7.128056 4.442930 3.631918
v 7.901508 4.442930 1.251469
v 7.901505 4.442930 -1.251484
v 7.128048 4.442930 -3.631932
v 5.656847 4.442930 -5.656861
v 3.631915 4.442930 -7.128057
v 1.251464 4.442930 -7.901509
vt 0.580686 0.097144
vt 0.711254 0.097144
vt 0.706122 0.481132
vt 0.585818 0.481132
vt 0.449267 0.525362
vt 0.609592 0.525362
vt 0.603290 0.996860
vt 0.455569 0.996860
vt 0.234747 0.484606
vt 0.392781 0.484606
vt 0.386570 0.949367
vt 0.240959 0.949367
vt 0.868103 -0.043312
vt 1.024682 -0.043312
vt 1.018528 0.417170
vt 0.874258 0.417170
vt 0.328040 -0.069233
vt 0.493250 -0.069233
vt 0.486757 0.416635
vt 0.334534 0.416635
vt 0.621644 0.497074
vt 0.796122 0.497074
vt 0.789264 1.010195
vt 0.628502 1.010195
vt 0.135269 0.060343
vt 0.291460 0.060343
vt 0.285320 0.519683
vt 0.141408 0.519683
vt 0.810187 0.573797
vt 0.962461 0.573797
vt 0.956476 1.021618
vt 0.816172 1.021618
vt 0.048551 0.539244
vt 0.176566 0.539244
vt 0.171534 0.915725
vt 0.053583 0.915725
vt 0.000698 0.063063
vt 0.150907 0.063063
vt 0.145003 0.504811
vt 0.006602 0.504811
vt 0.475197 0.482287
vt 0.486074 0.480565
vt 0.495887 0.475565
vt 0.503675 0.467777
vt 0.508675 0.457964
vt 0.510398 0.447087
vt 0.508675 0.436209
vt 0.503675 0.426396
vt 0.495887 0.418609
vt 0.486074 0.413609
vt 0.475197 0.411886
vt 0.464319 0.413609
vt 0.454506 0.418609
vt 0.446719 0.426396
vt 0.441719 0.436209
vt 0.439996 0.447087
vt 0.441719 0.457964
vt 0.446719 0.467777
vt 0.454506 0.475565
vt 0.464319 0.480565
vn 0.940300 0.150000 0.305500
vn -0.940300 0.150000 -0.305500
vn 0.581100 0.150000 -0.799900
vn -0.581100 0.150000 0.799900
vn 0.581100 0.150000 0.799900
vn -0.581100 0.150000 -0.799900
vn 0.940300 0.150000 -0.305500
vn -0.940300 0.150000 0.305500
vn -0.000000 0.150000 -0.988700
vn 0.000000 0.150000 0.988700
vn 0.000000 -1.000000 0.000000
usemtl None
s off
f 14/1/1 15/2/1 35/3/1 34/4/1
f 4/5/2 5/6/2 25/7/2 24/8/2
f 18/9/3 19/10/3 39/11/3 38/12/3
f 8/13/4 9/14/4 29/15/4 28/16/4
f 12/17/5 13/18/5 33/19/5 32/20/5
f 2/21/6 3/22/6 23/23/6 22/24/6
f 16/25/7 17/26/7 37/27/7 36/28/7
f 6/29/8 7/30/8 27/31/8 26/32/8
f 20/33/9 1/34/9 21/35/9 40/36/9
f 10/37/10 11/38/10 31/39/10 30/40/10
f 2/41/11 1/42/11 20/43/11 19/44/11 18/45/11 17/46/11 16/47/11 15/48/11 14/49/11 13/50/11 12/51/11 11/52/11 10/53/11 9/54/11 8/55/11 7/56/11 6/57/11 5/58/11 4/59/11 3/60/11
